<svg width="197" height="23" viewBox="0 0 197 23" fill="none" xmlns="http://www.w3.org/2000/svg"><path d="M0 2.9C0 1.5 1 .4 2.4.4H29c1.3 0 2.4 1.1 2.4 2.5v12.6c0 1.4-1.1 2.5-2.4 2.5H2.4A2.5 2.5 0 0 1 0 15.5V3Z" fill="black"/><path d="M.7 2.9c0-1 .8-1.7 1.7-1.7H29c.9 0 1.7.7 1.7 1.7v12.6c0 1-.8 1.7-1.7 1.7H2.4c-1 0-1.7-.7-1.7-1.7V3Z" fill="#E6F5F9"/><path d="M17 11.6h-2.7l-.5 1.3H12l2.6-7.3h2l2.7 7.3h-2l-.3-1.3Zm-.5-1.3-.9-2.7-.9 2.7h1.8Z" fill="black"/><path d="M20.6 8.7c-.2-1.3.6-2.6 1.9-2.9l26-5.7c1.2-.3 2.5.5 2.8 1.8l2.6 12.4c.3 1.3-.5 2.6-1.8 2.9l-26 5.7c-1.2.3-2.5-.5-2.8-1.8L20.6 8.7Z" fill="black"/><path d="M21.3 8.6c-.2-1 .4-1.9 1.3-2l26-5.8c.9-.2 1.8.3 2 1.3l2.7 12.3c.2 1-.4 1.9-1.3 2l-26 5.8c-.9.2-1.8-.3-2-1.3L21.3 8.6Z" fill="#FFEFE2"/><path d="M39 11c.4 0 .7.2 1 .5.4.3.6.6.7 1 .1.6 0 1.1-.3 1.6a4 4 0 0 1-1.7.9l-3.2.7-1.6-7.2 3.2-.7c.7-.1 1.3 0 1.8.2s.8.6.9 1.2a1.7 1.7 0 0 1-.9 1.9Zm-2.7 0 1-.2c.4 0 .6-.2.7-.3.1-.2.2-.4.1-.6 0-.3-.2-.4-.4-.5-.1-.1-.4-.2-.6 0l-1.2.2.4 1.5Zm1.8 2.7.7-.4v-.6c0-.3-.1-.5-.3-.6a1 1 0 0 0-.7 0l-1.3.2.4 1.6 1.2-.2Z" fill="black"/><path d="M64.3 6.3v1.3h-2.6V16h-1.6V7.6h-2.6V6.3h6.8Z" fill="black"/><path d="M70 8.2c.5 0 1 0 1.5.3s.8.7 1.1 1.2c.3.5.4 1 .4 1.8V16h-1.6v-4.3c0-.7-.1-1.2-.5-1.6-.3-.4-.8-.6-1.4-.6-.6 0-1 .2-1.4.6-.4.4-.6.9-.6 1.6V16H66V5.6h1.5v3.6l1-.8c.5-.2 1-.2 1.4-.2Z" fill="black"/><path d="M82 8.3V16h-1.6v-1c-.2.4-.5.7-1 .8l-1.2.3a3 3 0 0 1-1.7-.4c-.5-.2-.8-.6-1.1-1a4 4 0 0 1-.4-1.9V8.3h1.6v4.3c0 .7.1 1.2.5 1.6.3.3.8.5 1.4.5.6 0 1-.2 1.4-.5.4-.4.5-1 .5-1.6V8.3H82Z" fill="black"/><path d="M93.5 8.2c.6 0 1.1 0 1.6.3s.9.7 1.1 1.2c.3.5.5 1 .5 1.8V16H95v-4.3c0-.7-.2-1.2-.5-1.6-.4-.4-.9-.6-1.5-.6s-1 .2-1.4.6c-.3.4-.5.9-.5 1.6V16h-1.6v-4.3c0-.7-.2-1.2-.5-1.6-.4-.4-.8-.6-1.4-.6a2 2 0 0 0-1.5.6c-.3.4-.5.9-.5 1.6V16H84V8.3h1.6v.9l1-.8c.4-.2.9-.2 1.3-.2.6 0 1.2 0 1.7.4.5.2.8.6 1 1a4 4 0 0 1 1.2-1 3 3 0 0 1 1.6-.4Z" fill="black"/><path d="M100.3 9.4a3 3 0 0 1 1-.9c.6-.2 1-.3 1.7-.3.6 0 1.3.1 1.8.5.6.3 1 .7 1.3 1.4a4.5 4.5 0 0 1 0 4.1 3.5 3.5 0 0 1-3.2 2c-.5 0-1-.2-1.5-.4a3 3 0 0 1-1.1-1V16h-1.6V5.6h1.6v3.8Zm4.7 2.7c0-.5-.1-1-.4-1.4-.2-.4-.5-.6-.8-.8a2.3 2.3 0 0 0-2.3 0c-.4.2-.7.5-.9.8-.2.4-.3.9-.3 1.4 0 .6 0 1 .3 1.4.2.4.5.7.9 1a2.3 2.3 0 0 0 2.3 0l.8-1c.3-.4.4-.9.4-1.4Z" fill="black"/><path d="M112 8.2c.7 0 1.2 0 1.7.3s.8.7 1.1 1.2c.3.5.4 1 .4 1.8V16h-1.6v-4.3c0-.7-.1-1.2-.5-1.6-.3-.4-.8-.6-1.4-.6-.6 0-1 .2-1.4.6-.4.4-.5.9-.5 1.6V16h-1.6V8.3h1.6v.9c.2-.3.6-.6 1-.8.4-.2.8-.2 1.3-.2Z" fill="black"/><path d="M116.7 12.1c0-.8.2-1.5.5-2a3.6 3.6 0 0 1 3.2-2c.6 0 1.1.2 1.6.4.4.3.8.6 1 1V8.2h1.7V16H123v-1.1l-1 .9c-.5.2-1 .3-1.7.3a3 3 0 0 1-1.8-.5c-.5-.3-1-.8-1.3-1.4-.3-.6-.5-1.3-.5-2Zm6.3 0c0-.5 0-1-.3-1.3a2.3 2.3 0 0 0-3.1-1c-.4.3-.7.5-1 1l-.2 1.3c0 .5 0 1 .3 1.4.2.4.5.7.9 1a2.3 2.3 0 0 0 2.3 0l.8-1c.2-.4.3-.8.3-1.4Z" fill="black"/><path d="M127.6 7.3a1 1 0 0 1-.8-.3 1 1 0 0 1-.3-.8c0-.2.1-.5.3-.7.2-.2.5-.3.8-.3.2 0 .5.1.7.3.2.2.3.5.3.7 0 .3-.1.6-.3.8a1 1 0 0 1-.7.3Zm.7 1V16h-1.5V8.3h1.5Z" fill="black"/><path d="M132 5.6V16h-1.6V5.6h1.6Z" fill="black"/><path d="M140.4 6.3v1.3h-2.6V16h-1.6V7.6h-2.6V6.3h6.8Z" fill="black"/><path d="M149.1 12v.7h-6c.1.7.3 1.1.7 1.5.5.4 1 .6 1.6.6a2 2 0 0 0 1.8-1.1h1.7a3.5 3.5 0 0 1-3.5 2.4 3.7 3.7 0 0 1-3.4-1.9c-.3-.6-.5-1.3-.5-2 0-.9.2-1.6.5-2.1a3 3 0 0 1 1.3-1.4 4 4 0 0 1 2-.5 4 4 0 0 1 2 .4c.6.4 1 .8 1.3 1.4.3.5.5 1.2.5 2Zm-1.7-.6c0-.5-.2-1-.6-1.4-.4-.3-1-.5-1.5-.5a2 2 0 0 0-1.4.5c-.4.4-.7.9-.7 1.4h4.2Z" fill="black"/><path d="M153.5 16.1a4 4 0 0 1-1.7-.3 3 3 0 0 1-1-.9c-.4-.4-.5-.8-.5-1.3h1.6c0 .4.2.6.5.9.3.2.6.3 1 .3.5 0 .8-.1 1-.3.3-.1.5-.4.5-.6 0-.3-.2-.5-.5-.7l-1.3-.4-1.4-.5-1-.7c-.2-.3-.3-.7-.3-1.2 0-.4.1-.8.3-1.1.3-.4.6-.7 1-.8a4 4 0 0 1 1.7-.3c.8 0 1.5.2 2 .6.6.5.9 1 1 1.8h-1.7a1 1 0 0 0-.4-.8c-.2-.2-.6-.3-1-.3s-.7 0-1 .2a1 1 0 0 0-.3.7c0 .2 0 .3.2.5l.6.3 1 .3 1.3.5c.4.1.7.4 1 .7.2.3.3.6.3 1.1 0 .5 0 .9-.3 1.2-.3.4-.6.6-1 .8-.5.2-1 .3-1.6.3Z" fill="black"/><path d="M160 9.6v4.3c0 .2 0 .5.2.6l.7.2h1V16h-1.3c-.7 0-1.2-.2-1.6-.5-.4-.3-.6-.9-.6-1.6V9.6h-.9V8.3h1v-2h1.5v2h1.9v1.3H160Z" fill="black"/><path d="M164 16.1a1 1 0 0 1-.7-.3 1 1 0 0 1-.3-.7c0-.3 0-.6.3-.8l.7-.2c.3 0 .5 0 .7.2.2.2.3.5.3.8 0 .3 0 .5-.3.7a1 1 0 0 1-.7.3Z" fill="black"/><path d="M166.2 12.1c0-.8.2-1.5.5-2a3 3 0 0 1 1.3-1.4c.6-.4 1.3-.5 2-.5 1 0 1.7.2 2.3.6.6.5 1 1.1 1.2 2h-1.7c-.1-.5-.3-.8-.6-1a2 2 0 0 0-1.2-.3 2 2 0 0 0-1.6.7 3 3 0 0 0-.6 2c0 .8.2 1.4.6 1.9.4.4 1 .7 1.6.7 1 0 1.5-.4 1.8-1.2h1.7c-.2.7-.6 1.4-1.2 1.8-.6.5-1.4.7-2.3.7a3.6 3.6 0 0 1-3.3-1.9c-.3-.6-.5-1.3-.5-2Z" fill="black"/><path d="M178.5 16.1a4 4 0 0 1-2-.5c-.6-.3-1-.8-1.4-1.4-.3-.6-.5-1.3-.5-2 0-.8.2-1.5.5-2.1.4-.7.9-1.1 1.5-1.4.5-.4 1.2-.5 2-.5.7 0 1.4.1 2 .5.6.3 1 .7 1.4 1.4.3.6.5 1.3.5 2a4 4 0 0 1-.5 2.1 4 4 0 0 1-1.5 1.4c-.6.4-1.3.5-2 .5Zm0-1.4a2.3 2.3 0 0 0 2-1.1c.2-.4.3-.9.3-1.5 0-.5 0-1-.3-1.4-.2-.4-.5-.7-.8-.9l-1.2-.3a2 2 0 0 0-1.1.3c-.4.2-.6.5-.8 1a3 3 0 0 0-.4 1.3c0 .9.3 1.5.7 2 .4.4 1 .6 1.6.6Z" fill="black"/><path d="M193.4 8.2c.6 0 1.2 0 1.6.3.5.3.9.7 1.2 1.2.2.5.4 1 .4 1.8V16H195v-4.3c0-.7-.2-1.2-.5-1.6-.4-.4-.8-.6-1.4-.6a2 2 0 0 0-1.5.6c-.3.4-.5.9-.5 1.6V16h-1.6v-4.3c0-.7-.1-1.2-.5-1.6-.3-.4-.8-.6-1.4-.6-.6 0-1 .2-1.4.6-.4.4-.5.9-.5 1.6V16H184V8.3h1.6v.9c.2-.3.6-.6 1-.8.4-.2.8-.2 1.2-.2.7 0 1.2 0 1.7.4.5.2.9.6 1.1 1 .2-.4.6-.7 1.1-1a3 3 0 0 1 1.6-.4Z" fill="black"/></svg>